<svg version="1.1" xmlns="http://www.w3.org/2000/svg" viewBox="0 0 2015.6640490701059 1400.7779484493776" width="4031.3280981402118" height="2801.5558968987552">
  <!-- svg-source:excalidraw -->
  
  <defs>
    <style>
      @font-face {
        font-family: "Virgil";
        src: url("https://excalidraw.com/Virgil.woff2");
      }
      @font-face {
        font-family: "Cascadia";
        src: url("https://excalidraw.com/Cascadia.woff2");
      }
    </style>
  </defs>
  <g stroke-linecap="round" transform="translate(1456.2892020580023 73.78168849180474) rotate(0 59.594363116784734 59.594363116784734)"><path d="M9.19 27.87 C9.19 27.87, 9.19 27.87, 9.19 27.87 M9.19 27.87 C9.19 27.87, 9.19 27.87, 9.19 27.87 M1.77 48.87 C9.48 39.64, 17.25 32.74, 34.16 12.78 M1.33 48.14 C10.26 37.63, 21.24 26.01, 34.5 11.25 M4.87 59.77 C15.99 41.96, 32.1 23.44, 48.37 9.15 M3.61 59.1 C15.52 47.04, 26.12 34.76, 48.07 7.07 M7.22 67.28 C28.07 44.74, 49.69 21.04, 61.88 4.59 M5.04 68.41 C16.57 55.36, 29.05 41.75, 61.49 3.41 M7.92 77.8 C30.92 50.57, 56.04 21.51, 70.68 6.89 M7.53 77.62 C20.33 62.41, 32.93 46.85, 70.26 5 M10.63 85.64 C32.37 58.23, 57.46 31.18, 78.04 7.66 M11.13 86.64 C33.7 60.26, 57.39 34.09, 79.46 8.23 M15.16 93.52 C41.15 63.39, 65.33 36.04, 87.74 11.45 M15.25 94.61 C32.06 74.45, 51.66 53.01, 88.46 10.65 M21.08 101.56 C34.61 85.1, 49.61 66.25, 95.55 15.72 M19.93 101.32 C39.74 75.38, 62.6 51.66, 94.14 15.32 M23.88 110 C42.39 87.03, 62.94 60.63, 103.41 19.81 M23.61 108.27 C54.95 72.66, 85.84 37.05, 100.62 20.11 M31.94 110.75 C58.14 82.42, 80.32 50.92, 109.78 23.45 M31.69 112.55 C49.72 88.94, 69.94 67.15, 107.27 24.67 M38.18 116.37 C65.89 87.3, 89.38 56.63, 112.53 32.06 M39.85 114.29 C61.07 91.06, 82.25 65.32, 111.24 32.02 M46.2 117.08 C65.98 96.25, 83.15 77.44, 115.77 40.41 M47.8 117.96 C73.62 85.94, 100.75 56.99, 115.85 38.62 M57.92 117.2 C79.81 96.65, 95.21 72.09, 117.55 46.69 M58.51 117.26 C79.68 92, 101.07 67.07, 120 46.83 M69.17 116.27 C89.18 92.36, 113.3 65.61, 123.36 53.73 M69.52 116.53 C83.61 101.04, 98.64 85.31, 125.22 54.48 M78.6 119.42 C89.48 107.86, 98.74 96.86, 123.24 66.06 M79.36 117.57 C95.91 98.19, 111.93 81.17, 122.45 68.33 M21.33 106.55 C21.33 106.55, 21.33 106.55, 21.33 106.55 M21.33 106.55 C21.33 106.55, 21.33 106.55, 21.33 106.55 M44.67 115.81 C37.88 107.27, 29.17 102.72, 4.68 82.24 M44.66 114.86 C31.4 104.78, 20.77 96.15, 6.02 83.45 M51.13 110.98 C39.7 103.44, 29.2 90.91, 5.85 71.33 M51.47 112.95 C37.87 99.09, 21.9 85.88, 4.63 69.84 M65.12 112.86 C42.38 94.02, 16.64 70.66, -0.51 56.45 M64.78 111.97 C44.47 94.04, 22.39 76.59, 0.24 57.69 M80.32 113.18 C63.7 102.07, 46.94 85.12, 6.1 47.63 M79.64 115.13 C54.64 93.73, 31.98 73.74, 4.86 48.94 M86.79 108.14 C66.36 91.65, 41.01 72.37, 8.34 41.2 M85.49 110.21 C58.1 85.46, 29.49 60.75, 7.25 41.29 M94.22 105.05 C67.71 83.7, 39.96 58.03, 10.61 31.82 M92.97 106.56 C70.7 87.57, 47.99 68.47, 10.17 32.65 M101.22 99.19 C76.77 77.92, 52.22 57.3, 12.82 23.12 M100.86 100.33 C70.52 74.99, 40.96 48.47, 11.69 24.06 M107.6 96.04 C72.05 68.72, 42.42 36.72, 16.35 19.91 M106.01 95.11 C86.2 78.58, 65.09 60.19, 18.86 18.37 M112.43 89.08 C79.41 62.71, 47.31 33.08, 22.28 12.23 M110.96 88.05 C80.42 63.34, 49.11 36.77, 23.51 12.61 M117.24 82.17 C89.93 58.88, 60 36.51, 30.69 8.19 M114.87 82.64 C93.65 64.64, 73.24 44.53, 29.18 7.23 M117.79 73.31 C91.84 50.91, 66.5 26.75, 39.39 4.45 M118.79 74.9 C96.1 56.05, 75.18 37.07, 39.51 4.91 M121.05 63.13 C106.24 51.07, 87.49 39.16, 46.38 1.37 M120.38 64.15 C94.1 43.47, 69.66 21.35, 48.31 2.17 M120.25 56.47 C107.14 40.9, 89.88 30.82, 58.17 -2.65 M120.51 55.02 C95.81 33.38, 71.51 12.15, 55.47 0.01 M123.59 47.63 C107.4 33.4, 91.69 21.4, 63.47 -4.69 M121.6 45.07 C103.35 29.46, 84.85 12.03, 62.33 -5.23" stroke="#868e96" stroke-width="1" fill="none"></path><path d="M57.38 -0.75 C65.94 -1.87, 76.11 2.64, 84.24 6.53 C92.36 10.42, 100.32 15.43, 106.13 22.61 C111.95 29.78, 117.29 40.43, 119.13 49.58 C120.97 58.73, 120.18 68.87, 117.19 77.53 C114.2 86.18, 107.87 94.98, 101.19 101.5 C94.51 108.03, 86.03 114.06, 77.12 116.69 C68.21 119.31, 56.98 118.91, 47.72 117.25 C38.46 115.59, 28.53 112.32, 21.56 106.75 C14.58 101.18, 9.53 92.42, 5.88 83.82 C2.23 75.23, -0.87 64.48, -0.35 55.19 C0.18 45.89, 4.06 35.87, 9.03 28.05 C14 20.24, 20.75 12.87, 29.47 8.3 C38.19 3.73, 55.1 1.8, 61.35 0.64 C67.6 -0.53, 66.96 0.49, 66.96 1.32 M70.22 1.09 C79.32 2.05, 89.75 7.29, 97.13 12.98 C104.5 18.66, 110.64 26.88, 114.45 35.21 C118.27 43.54, 120.64 53.78, 120 62.98 C119.37 72.18, 115.47 82.65, 110.67 90.42 C105.86 98.2, 98.94 104.93, 91.17 109.66 C83.4 114.38, 73.07 117.96, 64.07 118.76 C55.07 119.55, 45.76 118.22, 37.17 114.42 C28.57 110.62, 18.31 103.1, 12.5 95.97 C6.69 88.85, 3.85 80.44, 2.32 71.68 C0.79 62.92, 0.97 52.38, 3.33 43.4 C5.69 34.43, 10.29 24.65, 16.49 17.83 C22.69 11.01, 31.76 5.11, 40.54 2.48 C49.32 -0.14, 64.53 2.15, 69.18 2.06 C73.83 1.97, 68.74 1.13, 68.43 1.96" stroke="#000000" stroke-width="2" fill="none"></path></g><g transform="translate(1464.3997406603896 10) rotate(0 52.5 16)"><text x="0" y="26" font-family="Helvetica, Segoe UI Emoji" font-size="28px" fill="#000000" text-anchor="start" style="white-space: pre;" direction="ltr">Registry</text></g><g stroke-linecap="round" transform="translate(730.3623690763682 359.44452951035555) rotate(0 59.594363116784734 59.594363116784734)"><path d="M14.23 21.64 C14.23 21.64, 14.23 21.64, 14.23 21.64 M14.23 21.64 C14.23 21.64, 14.23 21.64, 14.23 21.64 M3.18 48.84 C13.84 35.65, 25.34 21.21, 38.9 4.95 M2.09 47.84 C13.29 35.63, 23.38 24.21, 38.27 7.17 M1.82 58.1 C19.59 42.43, 35.01 19.83, 51.24 5.09 M2.89 60.91 C17.53 40.78, 34.47 22.29, 50.21 5.75 M3.78 73.36 C15.79 56.54, 28.43 40.28, 59.92 2.2 M2.02 72.25 C19.33 52.01, 38.11 32.01, 61.28 3.51 M5.02 79.14 C24.67 60.02, 40.78 39.47, 71.97 4.45 M5.47 78.7 C21.03 61.71, 37.07 45.29, 71.03 4.96 M9.72 85.68 C24.58 70.19, 41.69 55.26, 77.37 9.12 M10.77 87.49 C26.09 69.28, 42.46 50.98, 79.92 7.85 M14.97 94.33 C33.51 73.34, 52.76 50.01, 85.95 10.14 M15.33 94.08 C41.38 64.89, 65.98 35.54, 87.87 11 M19.08 101.84 C42.15 75.87, 64.49 49.66, 96.41 13.59 M18.39 102.81 C39.98 78.85, 61.52 54.14, 96.87 12.27 M24.48 105.09 C57.04 72.63, 86.46 39.21, 100.56 17.5 M25.52 105.95 C46.36 82.17, 69.96 56.35, 102.89 18.62 M30.04 109.9 C50.31 90.3, 65.29 71.81, 108.72 24.96 M32.59 110.95 C57.3 82.33, 84.74 51.54, 106.88 23.74 M39.28 113.72 C65.75 84.36, 91.85 51.88, 112.19 31.26 M37.59 115.48 C55.1 96.13, 71.47 77.65, 112.84 29.43 M45.9 120.38 C65.28 97.97, 87.2 74.94, 116.11 38.86 M45.78 120.55 C71.4 90.21, 97.06 61.27, 116.37 39 M53.38 120.12 C71.73 97.6, 93.09 79.2, 119.57 48.06 M54.94 120.9 C75.02 98.08, 93.93 77.63, 118.35 48.33 M64.73 121.35 C78.28 105.73, 92.76 88.16, 120.05 57.84 M64.69 123.2 C78.57 108.02, 89.92 93.3, 121.02 57.08 M75.13 124.11 C89.93 103.46, 107.01 87.66, 117.01 74.88 M74.85 123.79 C84.39 111.75, 96.25 98.7, 117.21 74.05 M16.85 101.04 C16.85 101.04, 16.85 101.04, 16.85 101.04 M16.85 101.04 C16.85 101.04, 16.85 101.04, 16.85 101.04 M43.97 114.24 C29.27 101.94, 18.75 92.01, 4.87 80.7 M43.25 113.89 C34.51 105.95, 25.38 96.89, 4.81 78.72 M58.1 114.27 C46.9 105.69, 33.36 93.04, 8.54 69.78 M56.92 114.53 C38.43 97.82, 19.6 82.11, 7.33 71.69 M70.52 115.54 C47.76 97.71, 27.3 77.19, 8.17 61.03 M70.87 116.87 C51.84 100.71, 32.56 83.71, 6.77 60.47 M81.47 112.86 C63.33 96.79, 44.27 84.64, 1.83 47.38 M80.2 114.13 C53.27 89.04, 25.2 64.94, 3.92 47.07 M85.98 109.67 C70.17 93.99, 53.08 80.23, 5.13 37.56 M88.5 110.47 C58.98 85.9, 31.88 61.68, 5.47 39.03 M95.3 105.35 C72.98 85.29, 49.45 68.63, 11.06 30.15 M94.96 106.74 C62.95 77.14, 30.26 48.87, 9.46 31.79 M100.38 98.36 C83.76 82.27, 65.52 67.57, 12.37 25.06 M101.39 99.93 C80.59 82.7, 61.44 65.49, 13.26 24.64 M107.41 91.79 C76.48 70.92, 48.79 46.27, 18.79 16.65 M105.49 93.13 C84.47 74.47, 62.79 55.52, 18.49 18.11 M111.32 87.22 C82.4 63.59, 58.49 42.7, 23.78 12.19 M109.89 87.79 C92.06 71.33, 74.57 56.04, 23.32 12.88 M114.51 83.18 C90.86 59.63, 63.8 37.06, 30.51 5.63 M116.53 80.49 C86.54 55.77, 58.63 31.32, 30.09 5.91 M118.31 70.2 C100.36 55.31, 81.75 41.31, 36.65 1.28 M117.8 72.41 C94.44 50.77, 68.99 29.25, 37.77 2.45 M118.61 64.44 C103.15 49.29, 89.78 37.3, 46.6 1.58 M119.7 63.34 C105.13 49.95, 87.36 35.57, 47.77 0.25 M120.46 55.63 C99.47 31.37, 75.14 13.71, 58.7 -1.06 M122.14 53.93 C101.5 37.98, 82.29 19.42, 58.76 -0.26 M117.62 42.1 C98.62 24.48, 77.91 6.55, 67.28 -3.93 M118.07 39.23 C105.23 30.7, 92.61 18.4, 68.42 -3.28" stroke="#4c6ef5" stroke-width="1" fill="none"></path><path d="M35.19 4 C43.12 -0.44, 55.46 -0.63, 64.96 0.14 C74.46 0.9, 84.52 3.79, 92.21 8.57 C99.9 13.35, 106.53 20.77, 111.11 28.83 C115.69 36.9, 119.33 47.73, 119.67 56.95 C120.02 66.17, 117.29 75.65, 113.16 84.13 C109.03 92.61, 102.04 102.05, 94.89 107.84 C87.75 113.63, 79.39 117.48, 70.31 118.87 C61.23 120.26, 49.34 119.14, 40.42 116.16 C31.5 113.18, 23.12 107.6, 16.79 100.99 C10.46 94.37, 5.09 85.24, 2.45 76.49 C-0.19 67.74, -0.98 57.6, 0.96 48.49 C2.9 39.37, 6.95 29.6, 14.07 21.82 C21.19 14.04, 37.34 5.19, 43.68 1.78 C50.03 -1.62, 52.05 0.31, 52.17 1.4 M65.3 0.96 C74.03 0.76, 84.79 4.88, 92.39 9.81 C100 14.73, 106.45 22.69, 110.93 30.51 C115.4 38.33, 118.81 47.66, 119.24 56.73 C119.68 65.8, 117.29 76.48, 113.53 84.94 C109.76 93.39, 104.19 102.04, 96.68 107.46 C89.16 112.88, 77.56 115.92, 68.43 117.46 C59.29 119, 50.36 119.33, 41.85 116.7 C33.35 114.06, 24.07 108.43, 17.41 101.64 C10.75 94.84, 4.7 85.01, 1.9 75.93 C-0.9 66.85, -1.25 55.97, 0.62 47.15 C2.48 38.34, 7.28 30.14, 13.07 23.06 C18.86 15.98, 26.99 8.44, 35.34 4.68 C43.69 0.92, 58.16 1.23, 63.18 0.5 C68.2 -0.24, 65.23 -0.65, 65.47 0.27" stroke="#000000" stroke-width="2" fill="none"></path></g><g stroke-linecap="round" transform="translate(1464.9461930788177 346.46222216323304) rotate(0 59.594363116784734 59.594363116784734)"><path d="M9.79 27.06 C9.79 27.06, 9.79 27.06, 9.79 27.06 M9.79 27.06 C9.79 27.06, 9.79 27.06, 9.79 27.06 M2.61 48.96 C10.28 38.49, 20.14 26.41, 35.36 7.77 M2.95 47.43 C12.44 36.63, 22.97 25.03, 36.03 8.73 M5.01 58.91 C16.93 40.84, 32.75 27.18, 50.15 7.7 M4.72 56.83 C22.36 36.65, 39.15 17.9, 48.8 6.41 M6.06 68.69 C22.78 46.77, 41.42 22.83, 62.47 1.45 M5.67 67.51 C24.32 47.69, 39.89 28.45, 62.43 1.96 M4.35 83.06 C23.99 59.16, 47.52 33.59, 69.99 4.62 M3.94 81.17 C22.19 63.52, 38.31 44.21, 70.5 4.11 M7.78 88.36 C25.14 73.94, 37.39 56.21, 78.65 7.94 M9.2 88.93 C26.33 69.07, 43.8 49.02, 79.72 7.91 M13.54 96.68 C29.46 77, 45.57 56.72, 91.05 6.51 M14.27 95.88 C37.02 68.13, 62.99 39.39, 89.96 8.42 M19.39 103.22 C45.35 72.63, 72.63 41.05, 95.48 11.42 M17.98 102.81 C34.19 83.78, 50.94 64.96, 96.84 12.6 M25.94 108.81 C57.12 74.31, 84.65 37.06, 101.89 19.31 M23.15 109.11 C42.41 88.43, 61.49 66.71, 101.38 19.35 M32.96 111.7 C56.75 84.46, 84.82 54.16, 109.02 23.26 M30.46 112.92 C50.32 90.21, 68.75 67.29, 108.74 24.71 M39.65 115.78 C62.29 87.63, 85.79 62.3, 112.57 28 M38.36 115.74 C66.97 84.23, 95.5 50.76, 114.01 29.43 M47.48 118.85 C66.48 98.78, 83.02 76.83, 118.21 37.44 M47.57 117.06 C61.8 100.45, 77.35 83.39, 116.85 38.93 M55.83 117.58 C83.99 92.33, 109.06 61.45, 120.29 46.32 M58.27 117.72 C77.83 96.72, 96.36 74.11, 119.81 45.3 M66.88 118.58 C85.01 97, 102.84 78.14, 121.64 54.32 M68.74 119.34 C84.02 99.48, 101.93 78.73, 123.79 55.79 M76.61 119.59 C93.7 103.34, 108.71 84.3, 121.11 70.04 M75.81 121.87 C85.85 110.37, 95.84 98.38, 121.15 69.15 M20.24 104.76 C20.24 104.76, 20.24 104.76, 20.24 104.76 M20.24 104.76 C20.24 104.76, 20.24 104.76, 20.24 104.76 M45.86 117.18 C37.55 109.48, 28.47 102.29, 2.87 78.48 M47.19 118.39 C37.97 109.49, 30.31 101.89, 3.75 80.11 M61.37 118.74 C38.06 97.81, 17.91 78.9, 4.34 69.94 M60.14 117.25 C43.84 103.79, 27.41 89.97, 3.21 69.08 M70.1 116.98 C45.02 91.57, 19.13 70.46, 1.09 57.37 M70.84 118.22 C54.98 103.57, 40.02 89.52, 0.58 57.16 M79.73 110.79 C49.84 89.32, 20.03 64.07, 5.42 47 M78.48 112.09 C55.18 92.56, 33.41 73.9, 3.41 49.33 M86.49 108.29 C62.83 88.38, 35.87 64.61, 8.02 42.38 M85.41 108.38 C55.32 82.81, 24.45 57.54, 6.88 40.69 M92.54 102.2 C60.42 77.55, 30.72 47.5, 11.84 31.85 M92.1 103.02 C64.04 78.68, 35.12 54.8, 9.3 32.37 M101.54 99.4 C83.86 84.17, 63.96 69.65, 11.06 23.78 M100.41 100.34 C71.07 74.29, 39.84 48.53, 12.65 23.09 M104.31 95.53 C69.49 64.55, 37.11 33.23, 17.38 19.51 M106.83 93.99 C77.33 67.91, 47.54 43.79, 18.52 18.55 M108.74 86.54 C79.27 60.9, 46 32.36, 22.65 13.31 M109.96 86.92 C79.07 59.7, 45.81 32.93, 24.41 13.68 M116.39 81.85 C86.56 57.14, 59.21 31.62, 31.22 6.64 M114.88 80.88 C83.95 53.34, 51.8 25.09, 29.66 7.34 M120.56 74.16 C97.81 56.03, 76.47 36.14, 36.45 0.61 M120.69 74.62 C91.63 50.43, 65.73 27.99, 35.56 3.1 M120 64.53 C102.49 49.01, 81.11 32.41, 43.92 -1.67 M121.94 65.33 C94.2 42.2, 69.21 19.58, 46.24 0.05 M124.25 53.94 C109.86 44.84, 94.44 30.7, 55.39 -2.51 M121.55 56.6 C106.37 41.07, 92.06 28.98, 56.25 -2.37 M124.27 47.31 C103.69 30.12, 83.28 11.38, 62.38 -5.33 M123.12 46.78 C103 27.69, 85.03 11.65, 63.72 -5.56" stroke="#4c6ef5" stroke-width="1" fill="none"></path><path d="M87.67 6.58 C96.17 9.87, 104.15 17.4, 109.33 24.83 C114.5 32.27, 117.59 41.95, 118.71 51.19 C119.82 60.43, 119.29 71.63, 116.01 80.28 C112.74 88.93, 106.15 96.79, 99.08 103.09 C92.02 109.39, 82.35 115.58, 73.62 118.08 C64.89 120.57, 55.66 120.32, 46.71 118.05 C37.76 115.78, 27.01 110.62, 19.9 104.47 C12.79 98.31, 7.31 89.68, 4.06 81.1 C0.81 72.52, -0.59 62.03, 0.42 52.96 C1.42 43.9, 4.78 34.41, 10.09 26.71 C15.4 19.02, 24.11 11.3, 32.28 6.79 C40.45 2.27, 49.58 -0.5, 59.12 -0.37 C68.67 -0.24, 84.43 5.74, 89.57 7.58 C94.7 9.43, 90.48 9.62, 89.96 10.69 M75.35 2.43 C83.87 3.75, 92.55 10.04, 99.27 16.06 C105.98 22.07, 112.38 30, 115.64 38.51 C118.89 47.02, 119.8 57.86, 118.8 67.13 C117.8 76.4, 115.07 86.72, 109.62 94.14 C104.17 101.57, 94.32 107.41, 86.08 111.68 C77.84 115.96, 69.15 119.58, 60.17 119.78 C51.19 119.98, 40.6 117.39, 32.19 112.88 C23.79 108.38, 15.17 100.62, 9.76 92.76 C4.35 84.9, 0.77 74.65, -0.24 65.71 C-1.25 56.76, 0.38 47.62, 3.69 39.09 C6.99 30.56, 12.76 20.71, 19.59 14.51 C26.41 8.31, 35.33 4.17, 44.66 1.88 C53.99 -0.41, 70.54 0.6, 75.57 0.76 C80.6 0.93, 75.06 1.65, 74.83 2.89" stroke="#000000" stroke-width="2" fill="none"></path></g><g transform="translate(498.5841636022201 384.25995466359655) rotate(0 94.99999999999989 32)"><text x="0" y="26" font-family="Helvetica, Segoe UI Emoji" font-size="28px" fill="#000000" text-anchor="start" style="white-space: pre;" direction="ltr">Namespace</text><text x="0" y="58" font-family="Helvetica, Segoe UI Emoji" font-size="28px" fill="#000000" text-anchor="start" style="white-space: pre;" direction="ltr">0x7Dea6FD1...</text></g><g transform="translate(1232.953471528814 369.2230512705255) rotate(0 90.5 32)"><text x="0" y="26" font-family="Helvetica, Segoe UI Emoji" font-size="28px" fill="#000000" text-anchor="start" style="white-space: pre;" direction="ltr">Namespace</text><text x="0" y="58" font-family="Helvetica, Segoe UI Emoji" font-size="28px" fill="#000000" text-anchor="start" style="white-space: pre;" direction="ltr">0x0dfEF5D3...</text></g><g stroke-linecap="round"><g transform="translate(1520.3847825635341 204.23984807857778) rotate(0 0.49382230208357214 65.38506238805599)"><path d="M-0.05 1.13 C0.15 22.4, 0.17 107.21, 0.15 128.55 M-1.53 0.68 C-0.85 22.07, 1.89 109.01, 2.52 130.09" stroke="#000000" stroke-width="2" fill="none"></path></g><g transform="translate(1520.3847825635341 204.23984807857778) rotate(0 0.49382230208357214 65.38506238805599)"><path d="M-6.72 101.15 C-5.98 106.66, -2.53 114.14, 1.8 128.46 M-8.12 101.72 C-5.84 108.64, -3.27 115.13, 2.63 129.89" stroke="#000000" stroke-width="2" fill="none"></path></g><g transform="translate(1520.3847825635341 204.23984807857778) rotate(0 0.49382230208357214 65.38506238805599)"><path d="M13.79 100.51 C10.13 106.16, 9.18 113.77, 1.8 128.46 M12.39 101.09 C9.9 108.35, 7.7 114.99, 2.63 129.89" stroke="#000000" stroke-width="2" fill="none"></path></g></g><g stroke-linecap="round"><g transform="translate(1449.4458136623882 156.6135710471208) rotate(0 -300.1283626948275 105.36104669027054)"><path d="M-0.65 0.01 C-100.89 35.12, -501.48 176.64, -601.46 211.75 M1.21 -1.03 C-98.66 34.24, -498.82 174.5, -599.24 209.97" stroke="#000000" stroke-width="2" fill="none"></path></g><g transform="translate(1449.4458136623882 156.6135710471208) rotate(0 -300.1283626948275 105.36104669027054)"><path d="M-576.03 189.37 C-581.65 196.38, -590.33 200.44, -600.59 211.43 M-576.08 190.96 C-585.15 198.36, -594.14 205.63, -598.64 210.74" stroke="#000000" stroke-width="2" fill="none"></path></g><g transform="translate(1449.4458136623882 156.6135710471208) rotate(0 -300.1283626948275 105.36104669027054)"><path d="M-569.22 208.73 C-577.04 209.97, -587.73 208.3, -600.59 211.43 M-569.27 210.32 C-581.12 210.05, -592.8 209.68, -598.64 210.74" stroke="#000000" stroke-width="2" fill="none"></path></g></g><g stroke-linecap="round" transform="translate(369.1935957717319 938.7029765383431) rotate(0 59.594363116784734 59.594363116784734)"><path d="M10.21 27.43 C10.21 27.43, 10.21 27.43, 10.21 27.43 M10.21 27.43 C10.21 27.43, 10.21 27.43, 10.21 27.43 M0.61 50.32 C7.69 40.98, 16.3 33.36, 36.6 11.82 M1.49 48.63 C10.09 40.19, 15.23 33.7, 35.34 11.15 M6.27 58.12 C20.92 39.29, 38.48 18.28, 50.75 5.74 M5.2 58.21 C20.73 38.83, 36.62 20.52, 48.57 6.88 M6.32 67.66 C18.54 55.86, 31.25 37.99, 61.94 4.19 M5.78 68.8 C18.46 54.47, 30.45 41.98, 61.56 4.01 M2.34 82.19 C21.58 63.06, 42.21 40.35, 71.22 4.49 M3.46 82.46 C18.53 67.81, 33.5 50.54, 71.72 5.48 M10.28 89.25 C33.76 62.71, 57.41 36.42, 79.69 7.83 M9.41 88.98 C36.33 58.98, 61.74 29.16, 79.78 8.93 M13.18 96.69 C31.82 73.58, 49.97 55.95, 91.51 9.08 M14.14 96.3 C40.19 65.8, 66.36 36.07, 90.36 8.84 M20.98 100.67 C37.45 82.79, 53.04 66.06, 95.62 16.01 M18.9 102.88 C37.11 82.43, 55.32 60.04, 95.35 14.28 M23.66 106.25 C53.44 78.19, 79.57 49.37, 102.37 18.27 M24.43 108.72 C54.3 73.91, 84.9 40.95, 102.12 20.07 M32.03 109.9 C55.45 87.93, 74.86 62.31, 106.64 26.16 M31.45 112.13 C62.25 76.86, 91.58 42.13, 108.31 24.08 M39.44 114.76 C57.08 94.53, 76 75.11, 109.42 32.9 M39.88 115.46 C65.23 87.65, 90.05 58.73, 111.01 33.79 M48.6 118.82 C64.75 97.37, 84.27 78.02, 113.92 41.33 M47.4 117.63 C72.76 89.32, 100.6 59.18, 114.51 41.39 M58.5 120.26 C74.41 99.68, 95.03 77.29, 117.95 48.69 M57.91 117.8 C70.31 103.9, 81.84 89.88, 118.3 48.95 M70.77 119.89 C83.95 100.83, 98.02 86.88, 122.78 57.13 M69.55 118.3 C87.12 96.88, 107.31 74.51, 123.54 55.28 M79.82 118.19 C96.53 101.59, 111.53 84.7, 120.9 67.76 M78.5 119.9 C92.26 103.91, 106.65 87.12, 122.47 68.34 M20.74 104.18 C20.74 104.18, 20.74 104.18, 20.74 104.18 M20.74 104.18 C20.74 104.18, 20.74 104.18, 20.74 104.18 M48.17 116.15 C40.02 108.03, 28.57 102.99, 3.78 78.57 M46.98 117.49 C35.75 106.84, 22.96 97.32, 4.12 80.54 M59.13 117.84 C37.76 99.69, 18.17 81.1, 4.95 69.29 M58.41 115.7 C38.27 98.71, 17.51 81.87, 4.6 68.4 M70.87 115.02 C49.39 93.47, 24.96 75.56, 3.53 55.18 M70.82 117 C44.36 94.8, 20.67 71.96, 2.86 57.13 M80.48 113.38 C61.3 97.89, 44.27 85.29, 6.23 46.86 M79.53 113.22 C50.53 87.96, 22.66 61.94, 4.94 48.93 M88.82 108.13 C54.71 82.85, 23.21 54.12, 9.14 39.83 M86.59 108.79 C60.14 86.13, 36.33 65.01, 7.89 41.34 M95.69 103.93 C69.81 83.84, 47.8 64.12, 12.36 30.69 M93.62 105.09 C70.39 83.69, 46.72 61.64, 12 31.83 M102.41 100.6 C75.31 79.72, 49.31 54.43, 14.97 24.26 M101.95 100.44 C81.99 83.52, 61.28 66.69, 13.38 23.33 M105.95 95.59 C74.35 68.43, 43.1 41.01, 21.31 18.62 M106.42 93.05 C78.03 70.88, 51.86 46.52, 19.84 17.58 M111.84 86.18 C81.82 63.41, 56.03 38.22, 27.63 13.01 M111.91 87.56 C79.54 58.91, 48.09 32.49, 25.25 13.48 M113.8 78.82 C92.21 63.33, 72.94 44.47, 30.44 6.12 M114.58 80.71 C92.72 60.93, 70.83 41.43, 31.45 7.72 M121.53 75.41 C102.22 57.93, 83.84 46.3, 42 3.16 M121.28 74.03 C89.95 47.71, 59.81 20.15, 41.34 4.18 M121.42 66.5 C104.5 48.1, 86.54 35.46, 50.26 4.38 M121.92 65.44 C95.9 42.9, 72.4 20.65, 50.52 2.93 M121.4 53.46 C105.41 37.45, 82.95 23.03, 60.4 1.43 M123.92 55.77 C102.78 37.38, 81.73 19.02, 58.4 -1.13 M121.85 45.18 C109.34 30.35, 89.62 18.93, 75.13 3.64 M122.72 45.81 C107.14 30.67, 90.63 16.09, 76.18 2.42" stroke="#40c057" stroke-width="1" fill="none"></path><path d="M57.99 0.74 C66.97 -0.06, 79.14 2.85, 87.41 6.89 C95.68 10.92, 102.39 17.52, 107.6 24.95 C112.81 32.38, 117.32 42.28, 118.66 51.45 C120.01 60.62, 118.85 71.18, 115.67 79.97 C112.5 88.75, 106.29 98.01, 99.6 104.18 C92.91 110.35, 84.43 114.79, 75.53 116.98 C66.63 119.17, 55.28 119.38, 46.21 117.3 C37.14 115.22, 28.26 110.39, 21.11 104.51 C13.96 98.62, 6.74 90.39, 3.3 82.01 C-0.13 73.64, -0.71 63.41, 0.49 54.25 C1.7 45.09, 5.35 34.79, 10.53 27.06 C15.72 19.33, 22.59 12.37, 31.59 7.85 C40.59 3.34, 58.15 0.93, 64.53 -0.03 C70.9 -0.99, 70.05 1.05, 69.86 2.09 M53.54 -0.72 C62.17 -2.32, 74.81 1.3, 83.59 5.13 C92.37 8.96, 100.58 15.29, 106.22 22.25 C111.86 29.21, 115.73 38.09, 117.43 46.91 C119.12 55.72, 118.87 66.02, 116.4 75.14 C113.93 84.26, 108.97 94.86, 102.59 101.65 C96.2 108.44, 86.96 113, 78.08 115.86 C69.21 118.72, 58.13 120.37, 49.35 118.81 C40.57 117.24, 32.5 112.02, 25.39 106.48 C18.28 100.94, 10.7 93.57, 6.68 85.54 C2.65 77.51, 1 67.37, 1.24 58.31 C1.48 49.25, 3.57 39.11, 8.11 31.18 C12.65 23.25, 20.91 15.95, 28.48 10.72 C36.04 5.48, 49.13 1.08, 53.5 -0.23 C57.87 -1.54, 54.68 1.9, 54.7 2.85" stroke="#000000" stroke-width="2" fill="none"></path></g><g stroke-linecap="round"><g transform="translate(282.790941485692 780.3767844628105) rotate(0 42.037164159205986 108.4741216744003)"><path d="M-0.63 -1.43 C-0.41 49.34, 2.15 96.99, -2.06 216.49 M0.09 -0.18 C0.09 66.24, -1.01 131.1, -1.49 216.83 M-0.84 218.37 C23.14 217.42, 46.45 217.63, 86.05 216.64 M-1.09 216.36 C29.42 217.15, 57.78 216.57, 86.13 217.46" stroke="#000000" stroke-width="2" fill="none"></path></g><g transform="translate(282.790941485692 780.3767844628105) rotate(0 42.037164159205986 108.4741216744003)"><path d="M57.03 225.55 C62.65 226.49, 72.19 223.85, 85.11 217.4 M57.86 226.98 C66.95 225.01, 74.69 221.26, 85.76 217.8" stroke="#000000" stroke-width="2" fill="none"></path></g><g transform="translate(282.790941485692 780.3767844628105) rotate(0 42.037164159205986 108.4741216744003)"><path d="M57.41 205.03 C63.07 210.53, 72.51 212.44, 85.11 217.4 M58.25 206.47 C67.21 210.7, 74.83 213.17, 85.76 217.8" stroke="#000000" stroke-width="2" fill="none"></path></g></g><g stroke-linecap="round"><g transform="translate(283.16388100848917 781.6688186598556) rotate(0 39.62561687726418 240.10678048269517)"><path d="M-0.59 0.64 C-1.29 142.48, -3.91 284.1, -4.54 478.49 M0.26 0.34 C-1.27 145.23, -2.71 290.63, -4.7 478.13 M-3.55 479.64 C26.43 479.18, 56.12 477.86, 83.95 479.47 M-3.67 478.65 C18.12 478.25, 42.47 479.51, 83.65 479.88" stroke="#000000" stroke-width="2" fill="none"></path></g><g transform="translate(283.16388100848917 781.6688186598556) rotate(0 39.62561687726418 240.10678048269517)"><path d="M53.96 491.17 C65.64 487.99, 71.15 484.04, 83.71 479.79 M55.91 490.48 C63.65 486.76, 72.13 484.13, 83.34 478.97" stroke="#000000" stroke-width="2" fill="none"></path></g><g transform="translate(283.16388100848917 781.6688186598556) rotate(0 39.62561687726418 240.10678048269517)"><path d="M54.27 470.65 C65.79 473.56, 71.21 475.7, 83.71 479.79 M56.22 469.96 C63.89 472.46, 72.28 476.07, 83.34 478.97" stroke="#000000" stroke-width="2" fill="none"></path></g></g><g transform="translate(369.1935957717319 846.536253346269) rotate(0 94.5 32)"><text x="0" y="26" font-family="Helvetica, Segoe UI Emoji" font-size="28px" fill="#000000" text-anchor="start" style="white-space: pre;" direction="ltr">RevocationKey</text><text x="0" y="58" font-family="Helvetica, Segoe UI Emoji" font-size="28px" fill="#000000" text-anchor="start" style="white-space: pre;" direction="ltr">0x56724...</text></g><g stroke-linecap="round" transform="translate(227.72480696816115 653.5532149415926) rotate(0 59.594363116784734 59.594363116784734)"><path d="M9.48 26.8 C9.48 26.8, 9.48 26.8, 9.48 26.8 M9.48 26.8 C9.48 26.8, 9.48 26.8, 9.48 26.8 M1.17 46.34 C12.78 32.57, 23.34 24.58, 32.67 9.42 M3.98 47.25 C15.18 34.13, 25.52 19.95, 34.63 10.6 M5.6 57.59 C20.19 41.8, 32.86 24.87, 46.69 7.41 M3.82 56.94 C13.58 46.85, 22.06 36.25, 49.37 6.04 M4.25 67.7 C18.16 51.61, 32.79 37.62, 59.89 4.34 M5.74 66.95 C24.27 45.12, 43.49 23.41, 62.17 3.42 M5.54 76.19 C24.92 56.18, 42.29 36.33, 71.87 6.58 M7.73 77.4 C20.7 63.47, 33.59 47.97, 71.44 5.05 M12.09 84.69 C37.16 56.54, 61.95 28.41, 78.61 7.83 M10.07 86.53 C25.87 69.08, 39.42 53.76, 78.71 7.89 M16.39 94.03 C37.41 67.42, 59.54 43.38, 88.19 10.75 M14.62 92.07 C36.43 69.14, 57.34 44.31, 87.93 9.59 M18.99 101.67 C44.81 68.66, 72.58 41.81, 97.03 14.63 M20.67 99.12 C38.44 79.06, 54.67 60.52, 95.4 14.52 M25.41 108.7 C52.59 71.7, 86.95 37.01, 100.09 20.4 M23.43 107.54 C53 74.31, 80.19 42.22, 101.51 19.14 M32.97 112.12 C52.31 86.34, 72.52 65.27, 107.77 22.15 M30.53 112.47 C50.94 87.75, 72.82 63.42, 107.35 23.91 M39.27 114.58 C63.92 88.16, 87.44 61.07, 115.6 29.87 M38.09 114.63 C64.41 86.37, 89.32 55.97, 113.98 28.43 M48.23 120.38 C72.64 85.85, 100.72 53.51, 117.75 39.7 M46.4 118.56 C72.23 88.67, 99.41 57.75, 117.56 38.02 M50.48 124.24 C74.16 98.39, 94.36 74.55, 119.2 44.67 M51.93 123.82 C69.72 105.19, 87.63 85.08, 119.18 46.84 M64.05 124.72 C82.37 103.12, 100.16 79.52, 124.14 55.95 M63.64 122.77 C82.89 102.21, 101.25 79.96, 122.83 55.57 M77.57 119.55 C94.61 101.36, 110.91 80.47, 123.54 66.9 M77.84 120.29 C93.98 99.57, 111.94 79.18, 120.66 67.76 M21.12 105.26 C21.12 105.26, 21.12 105.26, 21.12 105.26 M21.12 105.26 C21.12 105.26, 21.12 105.26, 21.12 105.26 M47.02 119.15 C32.86 103.01, 17.32 90.37, 5.59 79.72 M48.27 117.45 C31.9 103.99, 16.48 89.72, 5.88 81.08 M60.88 119.26 C39.23 99.86, 20.4 84.53, 4.22 67.31 M59.99 116.78 C36 97.85, 14.04 79.36, 2.94 69.29 M72.97 118.96 C47.72 94.43, 22.95 71.56, 2.44 58.36 M70.86 117.41 C55.13 104.03, 38.96 88.66, 1.95 56.2 M80.84 113.56 C49.12 88.32, 23.43 63.39, 6.41 50.11 M80.06 114.08 C61.77 98.31, 41.99 80.95, 5.35 48.46 M87.08 110.87 C67.05 91.82, 48.95 74.55, 6.68 41.69 M86.31 109.69 C57.51 85.58, 29.47 59.19, 7.08 39.58 M93.21 102.53 C70.62 83.12, 50.5 64.88, 11.1 32.28 M93.37 104.88 C73.39 86.45, 52.93 69.16, 11.06 32.44 M100.25 102.92 C79.09 78.88, 51.78 60.81, 11.2 24.34 M102.19 101.42 C71.88 74.33, 42.98 48.12, 13.3 22.92 M106.42 95.8 C76.1 68.3, 44.04 41.22, 19.54 19.23 M106.27 95.11 C80.11 72.32, 55.64 49.33, 18.75 17.87 M111.94 88.41 C89.09 72.77, 72.15 54.31, 23.59 12.47 M110.12 88.39 C83.73 63.12, 54.83 39.04, 24.92 12.82 M114.52 80.14 C91.1 56.58, 65.52 35.58, 30.83 8.68 M114.29 81.27 C91.19 60.22, 67.12 38.22, 30.53 7.19 M122.06 74.16 C87.27 47.97, 56.1 18.98, 41.24 6.03 M119.78 75.39 C98.91 56.12, 79.13 38.19, 39.64 5.19 M122.17 63.31 C95.26 45.31, 74.38 21.41, 50.97 4.08 M121.13 64.28 C96.81 43.07, 71.5 23.48, 48.97 1.97 M122.27 55.6 C97.06 36.36, 73.62 14.64, 58.7 0.72 M122.15 55.22 C104.85 38.3, 86.51 24.74, 57.84 -0.95 M124.19 46.14 C100.55 24.56, 79.94 7.61, 63.77 -5.27 M124.18 45.57 C105.17 30, 86.57 14.77, 63.99 -6.9" stroke="#fd7e14" stroke-width="1" fill="none"></path><path d="M58.72 0.12 C67.44 -0.79, 77.92 2.91, 86.28 7.01 C94.64 11.12, 103.51 17.4, 108.89 24.75 C114.28 32.11, 117.44 42.01, 118.61 51.14 C119.79 60.28, 119.26 70.76, 115.97 79.57 C112.68 88.38, 105.73 97.59, 98.88 104.02 C92.04 110.45, 83.59 115.78, 74.9 118.15 C66.2 120.52, 55.66 120.35, 46.72 118.22 C37.78 116.09, 28.29 111.53, 21.26 105.39 C14.24 99.24, 7.98 90.03, 4.56 81.36 C1.14 72.69, -0.09 62.51, 0.76 53.38 C1.62 44.25, 4.65 34.11, 9.68 26.57 C14.7 19.03, 22.05 12.63, 30.92 8.15 C39.79 3.66, 57.03 0.6, 62.89 -0.35 C68.74 -1.3, 66.05 1.27, 66.04 2.43 M75.02 1.75 C83.7 3.49, 93.39 11.04, 100.05 17.43 C106.71 23.83, 112.11 31.54, 114.97 40.11 C117.84 48.69, 118.27 59.93, 117.22 68.88 C116.17 77.83, 113.84 86.45, 108.69 93.81 C103.54 101.17, 94.6 108.72, 86.32 113.03 C78.04 117.34, 68.25 119.78, 58.98 119.66 C49.72 119.55, 38.76 116.77, 30.73 112.34 C22.7 107.91, 15.98 101.07, 10.79 93.09 C5.59 85.12, 0.53 73.64, -0.44 64.49 C-1.42 55.34, 1.48 46.75, 4.95 38.19 C8.41 29.62, 13.12 19.22, 20.33 13.08 C27.55 6.95, 38.85 3.4, 48.22 1.39 C57.6 -0.63, 72.04 0.63, 76.58 0.98 C81.11 1.32, 76.07 2.14, 75.43 3.44" stroke="#000000" stroke-width="2" fill="none"></path></g><g transform="translate(10 678.3085026044807) rotate(0 92.5 32)"><text x="0" y="26" font-family="Helvetica, Segoe UI Emoji" font-size="28px" fill="#000000" text-anchor="start" style="white-space: pre;" direction="ltr">RevocationList</text><text x="0" y="58" font-family="Helvetica, Segoe UI Emoji" font-size="28px" fill="#000000" text-anchor="start" style="white-space: pre;" direction="ltr">0x1bfcc5aae...</text></g><g stroke-linecap="round"><g transform="translate(722.9720354428257 458.81928399653907) rotate(0 -189.3896091851492 100.67191141078013)"><path d="M0.04 0.11 C-112.72 60.25, -224.25 119.08, -379 200.69 M0.22 0.08 C-126.31 65.59, -252.97 132.69, -378.67 201.26" stroke="#000000" stroke-width="2" fill="none"></path></g><g transform="translate(722.9720354428257 458.81928399653907) rotate(0 -189.3896091851492 100.67191141078013)"><path d="M-358.68 179.04 C-365.06 186.68, -369.02 191.64, -378.72 200.52 M-358.33 178.99 C-364.55 186.63, -371.56 194.12, -378.08 201.62" stroke="#000000" stroke-width="2" fill="none"></path></g><g transform="translate(722.9720354428257 458.81928399653907) rotate(0 -189.3896091851492 100.67191141078013)"><path d="M-348.92 197.09 C-358.21 199.37, -365.07 198.97, -378.72 200.52 M-348.57 197.04 C-357.99 198.57, -368.26 200.04, -378.08 201.62" stroke="#000000" stroke-width="2" fill="none"></path></g></g><g stroke-linecap="round"><g transform="translate(278.9147322539807 1259.3447763360855) rotate(0 -0.5059363435095747 49.49087069422353)"><path d="M-0.4 1.21 C1.08 28.48, -1.03 57.22, -1.05 97.43 M0.92 0.5 C0.61 21.06, 0.28 41.46, -1.93 98.48" stroke="#000000" stroke-width="2" fill="none"></path></g></g><g transform="translate(261.71523485549415 1349.7779484493776) rotate(0 16 20.5)"><text x="0" y="33" font-family="Helvetica, Segoe UI Emoji" font-size="36px" fill="#000000" text-anchor="start" style="white-space: pre;" direction="ltr">...</text></g><g stroke-linecap="round"><g transform="translate(792.334004856408 494.7807379967021) rotate(0 0.0936858782336003 73.14487474725524)"><path d="M-0.05 -0.74 C1.62 51.7, -1.03 105.47, -0.16 147.03 M0.59 0.36 C0.43 51.32, 0.53 101.41, -0.4 145.02" stroke="#000000" stroke-width="2" fill="none"></path></g><g transform="translate(792.334004856408 494.7807379967021) rotate(0 0.0936858782336003 73.14487474725524)"><path d="M-10.3 115.94 C-5.81 126.3, -4.74 137.96, -0.07 146.85 M-9.66 117.04 C-6.85 126.99, -3.12 136.13, -0.32 144.83" stroke="#000000" stroke-width="2" fill="none"></path></g><g transform="translate(792.334004856408 494.7807379967021) rotate(0 0.0936858782336003 73.14487474725524)"><path d="M10.22 116.24 C7.32 126.44, 0.99 138, -0.07 146.85 M10.86 117.34 C6.48 127.29, 3.01 136.32, -0.32 144.83" stroke="#000000" stroke-width="2" fill="none"></path></g></g><g stroke-linecap="round"><g transform="translate(1520.5665686302375 477.4564188941422) rotate(0 0.24333127082786632 48.12808491235637)"><path d="M0.67 -0.61 C-1.83 27.19, 0.3 54.54, 1 96.87 M-0.21 0.43 C0.63 33.22, 0.64 66.98, 0.89 95.88" stroke="#000000" stroke-width="2" fill="none"></path></g><g transform="translate(1520.5665686302375 477.4564188941422) rotate(0 0.24333127082786632 48.12808491235637)"><path d="M-8.89 67.15 C-8.51 76.38, -3.49 85.11, 1.89 96.99 M-9.78 68.19 C-5.67 77.22, -1.99 87.26, 1.78 96" stroke="#000000" stroke-width="2" fill="none"></path></g><g transform="translate(1520.5665686302375 477.4564188941422) rotate(0 0.24333127082786632 48.12808491235637)"><path d="M11.63 67.01 C6.37 76.2, 5.73 84.97, 1.89 96.99 M10.74 68.05 C7.66 77.2, 4.14 87.29, 1.78 96" stroke="#000000" stroke-width="2" fill="none"></path></g></g><g transform="translate(1506.4391044509796 580.0041608064068) rotate(0 16 20.5)"><text x="0" y="33" font-family="Helvetica, Segoe UI Emoji" font-size="36px" fill="#000000" text-anchor="start" style="white-space: pre;" direction="ltr">...</text></g><g transform="translate(378.28795888851664 966.2973396551279) rotate(0 50.5 32)"><text x="50.5" y="26" font-family="Helvetica, Segoe UI Emoji" font-size="28px" fill="#000000" text-anchor="middle" style="white-space: pre;" direction="ltr">revoked</text><text x="50.5" y="58" font-family="Helvetica, Segoe UI Emoji" font-size="28px" fill="#000000" text-anchor="middle" style="white-space: pre;" direction="ltr">false</text></g><g stroke-linecap="round"><g transform="translate(1583.1733331886737 152.00470913281742) rotate(0 197.83547508649417 105.4362755556258)"><path d="M0.16 0.89 C106.05 56.52, 212.54 113.34, 395.59 210.56 M0.04 -0.09 C136.17 73.1, 271.2 145.08, 395.63 210.96" stroke="#000000" stroke-width="2" fill="none"></path></g><g transform="translate(1583.1733331886737 152.00470913281742) rotate(0 197.83547508649417 105.4362755556258)"><path d="M366.25 208.64 C374.9 208.91, 382.91 210.1, 396.35 210.54 M366 206.63 C377.01 208.46, 385.89 209.12, 396.43 211.36" stroke="#000000" stroke-width="2" fill="none"></path></g><g transform="translate(1583.1733331886737 152.00470913281742) rotate(0 197.83547508649417 105.4362755556258)"><path d="M375.87 190.52 C381.76 195.71, 387.18 201.78, 396.35 210.54 M375.62 188.5 C383.34 196.52, 388.91 203.4, 396.43 211.36" stroke="#000000" stroke-width="2" fill="none"></path></g></g><g transform="translate(1973.6640490701059 370.6986390047914) rotate(0 16 20.5)"><text x="0" y="33" font-family="Helvetica, Segoe UI Emoji" font-size="36px" fill="#000000" text-anchor="start" style="white-space: pre;" direction="ltr">...</text></g><g stroke-linecap="round" transform="translate(731.2456689732 653.5532149415926) rotate(0 59.594363116784734 59.594363116784734)"><path d="M22.98 13.35 C22.98 13.35, 22.98 13.35, 22.98 13.35 M22.98 13.35 C22.98 13.35, 22.98 13.35, 22.98 13.35 M12.21 38.49 C23.15 27.33, 34.96 14.92, 40.64 5.99 M10.04 39.63 C16.17 32.71, 23.1 25.49, 40.24 4.82 M1.1 62.6 C19.19 40.91, 39.43 17.46, 51.4 6.03 M0.72 62.42 C10.99 50.26, 20.99 37.69, 50.98 4.14 M3.82 70.45 C21.94 47.19, 43.4 24.32, 60.73 4.54 M4.32 71.44 C23.4 49.09, 43.51 27.06, 62.15 5.11 M5.72 81.34 C29.5 53.84, 51.43 29.06, 71.74 6.82 M5.81 82.43 C21.04 64.06, 39.03 44.48, 72.46 6.02 M10.33 90.89 C23.48 74.89, 38.08 56.5, 82.83 7.32 M9.18 90.65 C28.44 65.37, 50.72 42.31, 81.42 6.91 M14.44 97.82 C32.12 75.83, 51.82 50.4, 90.69 11.4 M14.17 96.09 C44.22 61.97, 73.8 27.86, 87.9 11.7 M20.53 100.84 C46.3 73.02, 68.05 42.03, 97.06 15.04 M20.28 102.63 C38 79.41, 57.88 58, 94.56 16.26 M24.8 108.72 C54.08 77.86, 79.14 45.39, 103.75 19.13 M26.47 106.64 C49.11 81.83, 71.67 54.52, 102.46 19.08 M30.21 112.44 C51.97 89.27, 71.16 68.13, 107.65 26.72 M31.8 113.33 C60.63 77.76, 90.83 45.29, 107.73 24.93 M39.3 115.59 C64.74 90.87, 83.67 62.27, 110.09 32.25 M39.89 115.65 C64.94 85.7, 90.32 56.17, 112.53 32.39 M48.58 116.92 C73.52 87.27, 102.61 54.8, 115.24 40.04 M48.93 117.18 C66.36 98.01, 84.64 78.54, 117.09 40.79 M57.35 120.83 C72.21 104.47, 85.63 88.68, 121.02 45.58 M58.11 118.97 C81.6 91.45, 104.66 66.33, 120.23 47.85 M68.59 116.36 C86.27 98.68, 102.28 80.94, 122.07 56.79 M70.15 116.94 C92.02 93.97, 111.42 69.21, 121.94 57.29 M83.32 115.72 C92.46 104.98, 99.58 98.14, 119.12 71.18 M83.3 114.77 C93.31 100.98, 105.96 88.99, 120.45 72.39 M28.77 110.19 C28.77 110.19, 28.77 110.19, 28.77 110.19 M28.77 110.19 C28.77 110.19, 28.77 110.19, 28.77 110.19 M48.48 116.76 C36.23 106.89, 20.94 92.61, 11.52 85.28 M48.13 115.87 C36.97 105.79, 24.24 96.46, 12.27 86.52 M60.65 114.46 C49.53 107.91, 38.18 95.66, 10.59 69.91 M59.98 116.41 C42.71 101.76, 27.64 88.37, 9.35 71.21 M70.9 112.7 C54.19 99.4, 32.63 83.43, 6.03 57.57 M69.6 114.77 C47.22 94.38, 23.55 73.96, 4.95 57.66 M80.6 111.58 C57.2 93.03, 32.61 70.1, 6.8 46.88 M79.35 113.09 C59.74 96.3, 39.65 79.48, 6.36 47.7 M89.86 107.68 C67.41 88.23, 44.91 69.38, 9 38.18 M89.5 108.83 C61.71 85.75, 34.7 61.45, 7.88 39.11 M96.24 104.53 C61.81 78.2, 33.3 47.18, 8.01 31.03 M94.65 103.6 C75.55 87.67, 55.14 69.89, 10.52 29.49 M103.33 99.55 C70.04 72.94, 37.66 43.06, 12.43 22.04 M101.86 98.51 C71.06 73.57, 39.48 46.77, 13.66 22.42 M110.41 94.6 C81.92 70.25, 50.79 46.84, 20.08 17.35 M108.03 95.07 C85.88 76.25, 64.53 55.33, 18.57 16.38 M110.2 85.08 C81.99 60.72, 54.39 34.59, 25.01 10.32 M111.21 86.68 C86.64 66.2, 63.85 45.6, 25.14 10.78 M116.48 77.53 C99.45 63.56, 78.39 49.65, 31.24 6.59 M115.82 78.55 C85.87 54.67, 57.8 29.4, 33.18 7.39 M117.95 72.84 C101.77 54.64, 81.44 41.88, 42.28 1.91 M118.21 71.39 C88.27 45.33, 58.82 19.61, 39.59 4.56 M124.31 66.62 C104.5 49.3, 85.09 34.08, 49.85 1.83 M122.32 64.06 C99.51 44.5, 76.49 23.16, 48.7 1.3 M121.69 53.73 C108.58 41.52, 92.5 26.44, 62.68 1.41 M122.73 52.52 C104.12 37.2, 84.82 21.5, 60.72 1.3 M118.99 39.83 C105.77 25.43, 88.41 14.91, 72.42 0.47 M118.66 39.72 C102.56 26.74, 87.93 12.25, 75.23 0.64" stroke="#fd7e14" stroke-width="1" fill="none"></path><path d="M77.33 2.63 C85.85 4.39, 94.58 10.6, 101.05 17.22 C107.53 23.84, 113.28 33.62, 116.17 42.33 C119.07 51.04, 120.08 60.38, 118.41 69.46 C116.74 78.54, 111.73 89.32, 106.14 96.79 C100.55 104.27, 93.05 110.65, 84.86 114.32 C76.67 117.99, 66.29 119.47, 56.99 118.82 C47.69 118.17, 37.12 115.14, 29.04 110.42 C20.96 105.71, 13.21 98.44, 8.53 90.54 C3.85 82.63, 1.53 72.31, 0.95 63 C0.36 53.69, 1.4 42.91, 5.03 34.69 C8.65 26.47, 15.58 19.23, 22.69 13.7 C29.79 8.17, 37.13 2.62, 47.66 1.5 C58.19 0.37, 78.14 5.14, 85.85 6.95 C93.57 8.77, 94.28 11.52, 93.95 12.41 M82.49 5.83 C90.87 8.28, 97.96 13.63, 104.03 20.47 C110.1 27.3, 116.57 37.89, 118.9 46.82 C121.24 55.75, 120.64 65.14, 118.05 74.05 C115.46 82.97, 110.02 93.19, 103.35 100.29 C96.68 107.4, 86.7 113.69, 78.05 116.7 C69.4 119.7, 60.27 119.68, 51.43 118.31 C42.6 116.93, 32.68 113.6, 25.04 108.45 C17.4 103.31, 9.76 95.76, 5.6 87.44 C1.43 79.12, -0.36 68.05, 0.06 58.55 C0.48 49.06, 3.58 38.51, 8.12 30.49 C12.65 22.46, 19.85 15.48, 27.27 10.42 C34.7 5.37, 43.8 1.13, 52.69 0.17 C61.59 -0.8, 75.63 3.95, 80.66 4.6 C85.7 5.26, 82.82 3.41, 82.91 4.11" stroke="#000000" stroke-width="2" fill="none"></path></g><g stroke-linecap="round"><g transform="translate(852.3359997648652 467.54346158632234) rotate(0 172.5185937302374 85.48797365173755)"><path d="M0.43 -0.25 C123.57 59.35, 245.18 119.85, 344.61 171.22 M0.48 0.24 C107.41 54.69, 214.41 107.36, 344.59 169.99" stroke="#000000" stroke-width="2" fill="none"></path></g><g transform="translate(852.3359997648652 467.54346158632234) rotate(0 172.5185937302374 85.48797365173755)"><path d="M315.46 166.52 C326.23 167.98, 335.25 169.1, 344.22 171.78 M315.54 167.34 C324.6 168.63, 333.05 168.92, 344.18 169.69" stroke="#000000" stroke-width="2" fill="none"></path></g><g transform="translate(852.3359997648652 467.54346158632234) rotate(0 172.5185937302374 85.48797365173755)"><path d="M324.41 148.05 C332.09 156.13, 337.93 163.81, 344.22 171.78 M324.49 148.87 C330.67 155.86, 336.34 161.91, 344.18 169.69" stroke="#000000" stroke-width="2" fill="none"></path></g></g><g transform="translate(1209.7874695979783 628.2373774429159) rotate(0 16 20.5)"><text x="0" y="33" font-family="Helvetica, Segoe UI Emoji" font-size="36px" fill="#000000" text-anchor="start" style="white-space: pre;" direction="ltr">...</text></g><g stroke-linecap="round" transform="translate(881.3921637633132 937.9016807821693) rotate(0 59.594363116784734 59.594363116784734)"><path d="M12.36 23.99 C12.36 23.99, 12.36 23.99, 12.36 23.99 M12.36 23.99 C12.36 23.99, 12.36 23.99, 12.36 23.99 M1.8 49.08 C11.5 35.61, 22.92 19.98, 36.56 6.75 M1.41 47.91 C13.48 35.65, 22.5 23.94, 36.52 7.26 M6 56.67 C18.29 40.96, 34.64 23.66, 48.67 4.64 M5.59 54.78 C17.89 43.51, 28.28 30.81, 49.18 4.13 M5.49 66.49 C19.9 55.31, 29.25 40.91, 62.58 1.92 M6.91 67.07 C20.78 51.08, 34.91 34.87, 63.65 1.89 M4.69 82.36 C18.59 65.02, 32.66 47.08, 73.01 2.76 M5.41 81.56 C25.26 57.22, 48.21 31.95, 71.92 4.66 M10.53 88.9 C34.22 60.95, 59.19 32.03, 80.07 4.64 M9.12 88.49 C23.98 71.05, 39.38 53.8, 81.43 5.83 M16.43 95.25 C46.3 62.21, 72.53 26.45, 89.1 9.51 M13.64 95.55 C32.14 75.73, 50.45 54.91, 88.59 9.56 M20.17 101.91 C43.73 74.92, 71.58 44.87, 95.57 14.22 M17.67 103.13 C37.37 80.6, 55.63 57.88, 95.29 15.67 M24.89 108.26 C47.95 79.63, 71.86 53.83, 99.12 18.97 M23.61 108.21 C52.71 76.15, 81.72 42.11, 100.57 20.39 M31.41 112.83 C51.88 91.04, 69.92 67.36, 108.05 24.63 M31.5 111.04 C46.94 92.97, 63.74 74.46, 106.69 26.12 M37.13 114.58 C69.81 84.31, 99.28 48.36, 112.75 30.49 M39.58 114.72 C62.59 89.77, 84.55 63.22, 112.27 29.47 M45.56 118.6 C68.16 91.93, 90.47 67.91, 114.1 38.49 M47.42 119.35 C66.93 94.48, 89.09 68.85, 116.25 39.96 M56.6 118.1 C79.61 94.88, 100.6 68.97, 118.16 48.93 M55.81 120.38 C69.29 104.7, 82.81 88.66, 118.2 48.04 M66.83 118.75 C83.92 100.47, 99.35 84.57, 119.95 58.53 M66.7 119.24 C84.6 98.15, 104.09 77.81, 121.78 57.53 M75.03 120.31 C86.25 109.57, 96.74 99.71, 117.71 69.94 M76.37 121.51 C84.94 109.73, 95.08 99.72, 118.59 71.57 M18.7 103.47 C18.7 103.47, 18.7 103.47, 18.7 103.47 M18.7 103.47 C18.7 103.47, 18.7 103.47, 18.7 103.47 M42.21 114 C28.15 98.52, 13.44 87.12, 1.89 79.31 M42.96 115.24 C33.52 106.42, 25.23 98.17, 1.38 79.1 M58.64 113.71 C36.06 98.58, 13.46 79.58, 3.2 66.32 M57.4 115.01 C39.92 100.43, 23.95 86.82, 1.19 68.65 M70.69 115.8 C50.05 98.57, 26.17 77.49, 2.02 58.42 M69.6 115.89 C43.34 93.49, 16.22 71.48, 0.89 56.73 M77.49 110.36 C48.53 88.53, 22.02 61.25, 5.09 47.24 M77.05 111.19 C51.83 89.33, 25.82 67.97, 2.55 47.75 M85.73 106.91 C70.02 93.5, 52.1 80.71, 5.07 39.82 M84.61 107.85 C58.64 84.73, 30.77 61.89, 6.65 39.13 M90.77 105.01 C58.07 75.88, 27.77 46.37, 9.12 33.58 M93.29 103.47 C65.56 78.95, 37.55 56.38, 10.26 32.62 M98.97 99.3 C68.65 72.92, 34.54 43.65, 10.61 24.1 M100.2 99.68 C68.47 71.73, 34.36 44.22, 12.38 24.47 M106.62 94.61 C76.3 69.47, 48.44 43.51, 19.95 18.09 M105.11 93.64 C73.61 65.6, 40.9 36.86, 18.38 18.79 M110.79 86.92 C87.65 68.44, 65.92 48.21, 25.18 12.05 M110.92 87.38 C81.36 62.76, 54.96 39.89, 24.28 14.55 M114.01 80.57 C94.56 63.37, 71.21 45.06, 30.37 7.81 M115.94 81.37 C85.61 55.97, 58.01 31.08, 32.7 9.53 M119.01 70.64 C101.92 59.17, 83.71 42.6, 37.32 3.03 M116.31 73.3 C98.15 55.08, 80.85 40.4, 38.18 3.18 M119.78 64.66 C95.21 44.12, 70.81 21.91, 45.82 1.52 M118.64 64.13 C94.55 41.54, 72.68 22.11, 47.16 1.3 M121.29 54.4 C99.86 36.31, 79.17 19.22, 55.09 0.55 M119.34 54.29 C102 37.25, 83.51 22.4, 56.94 -0.26 M112.92 37.71 C104.71 28.63, 92.23 20.47, 66.34 -4.96 M115.73 37.88 C97.29 23.34, 79.42 8.78, 65.93 -5" stroke="#40c057" stroke-width="1" fill="none"></path><path d="M62.18 -0.38 C70.9 -0.91, 80.77 4.03, 88.81 8.82 C96.84 13.61, 105.28 20.74, 110.4 28.37 C115.52 36, 118.9 45.54, 119.55 54.58 C120.19 63.62, 118.05 74.12, 114.28 82.62 C110.51 91.11, 103.94 99.74, 96.93 105.53 C89.93 111.32, 81.26 115.62, 72.26 117.36 C63.25 119.09, 51.87 118.31, 42.91 115.96 C33.94 113.61, 25.23 109.45, 18.46 103.26 C11.69 97.08, 5.26 87.59, 2.3 78.84 C-0.67 70.09, -0.99 59.91, 0.68 50.77 C2.35 41.64, 6.66 31.39, 12.33 24.02 C18 16.66, 25.55 10.57, 34.68 6.56 C43.81 2.54, 61.22 0.61, 67.11 -0.07 C73 -0.76, 70.12 1.52, 70.04 2.46 M46.48 0.47 C54.63 -2.45, 65.6 -0.71, 74.17 1.88 C82.75 4.47, 91 9.91, 97.95 15.99 C104.9 22.08, 112.31 29.78, 115.85 38.39 C119.4 47, 120.54 58.18, 119.22 67.63 C117.91 77.07, 113.31 87.52, 107.96 95.06 C102.62 102.6, 95.16 108.87, 87.16 112.87 C79.17 116.87, 69.19 119.05, 60 119.06 C50.81 119.08, 40.51 117.28, 32.05 112.96 C23.6 108.65, 14.78 100.87, 9.27 93.18 C3.76 85.48, -0.34 76.17, -1.01 66.78 C-1.69 57.4, 1.45 45.72, 5.21 36.88 C8.98 28.04, 14.79 19.58, 21.56 13.77 C28.34 7.95, 41.76 3.66, 45.87 2 C49.98 0.35, 45.94 3.16, 46.24 3.83" stroke="#000000" stroke-width="2" fill="none"></path></g><g stroke-linecap="round"><g transform="translate(795.0745230135947 775.0961443420601) rotate(0 42.474501062772106 111.19341008888114)"><path d="M-0.31 1.55 C-0.85 67.03, -2.53 136.96, -0.48 222.01 M-0.35 -0.26 C-1.2 79.04, -1.94 156.65, -1.91 221.2 M-1.38 222.64 C31.81 221.42, 64.6 222.7, 86.87 220.63 M-1.92 220.55 C22.77 220.39, 45.86 219.67, 85.41 221.61" stroke="#000000" stroke-width="2" fill="none"></path></g><g transform="translate(795.0745230135947 775.0961443420601) rotate(0 42.474501062772106 111.19341008888114)"><path d="M56.51 232.66 C65.9 227.14, 73.12 226.77, 86.21 222.74 M56.48 230.58 C66.74 228.43, 76.49 224.3, 84.55 221.81" stroke="#000000" stroke-width="2" fill="none"></path></g><g transform="translate(795.0745230135947 775.0961443420601) rotate(0 42.474501062772106 111.19341008888114)"><path d="M57.24 212.15 C66.32 212.92, 73.33 218.84, 86.21 222.74 M57.2 210.07 C67.15 215.19, 76.64 218.33, 84.55 221.81" stroke="#000000" stroke-width="2" fill="none"></path></g></g><g transform="translate(891.2276685944692 845.8347093551781) rotate(0 94.5 32)"><text x="0" y="26" font-family="Helvetica, Segoe UI Emoji" font-size="28px" fill="#000000" text-anchor="start" style="white-space: pre;" direction="ltr">RevocationKey</text><text x="0" y="58" font-family="Helvetica, Segoe UI Emoji" font-size="28px" fill="#000000" text-anchor="start" style="white-space: pre;" direction="ltr">0x43b14...</text></g><g transform="translate(890.4865268800979 965.496043898954) rotate(0 50.5 32)"><text x="50.5" y="26" font-family="Helvetica, Segoe UI Emoji" font-size="28px" fill="#000000" text-anchor="middle" style="white-space: pre;" direction="ltr">revoked</text><text x="50.5" y="58" font-family="Helvetica, Segoe UI Emoji" font-size="28px" fill="#000000" text-anchor="middle" style="white-space: pre;" direction="ltr">true</text></g><g transform="translate(520.5057689457103 681.4726474880572) rotate(0 92.49999999999989 32)"><text x="0" y="26" font-family="Helvetica, Segoe UI Emoji" font-size="28px" fill="#000000" text-anchor="start" style="white-space: pre;" direction="ltr">RevocationList</text><text x="0" y="58" font-family="Helvetica, Segoe UI Emoji" font-size="28px" fill="#000000" text-anchor="start" style="white-space: pre;" direction="ltr">0x1bfcc5aae...</text></g><g stroke-linecap="round" transform="translate(369.1935957717319 1199.4239164543353) rotate(0 59.594363116784734 59.594363116784734)"><path d="M17.05 18.8 C17.05 18.8, 17.05 18.8, 17.05 18.8 M17.05 18.8 C17.05 18.8, 17.05 18.8, 17.05 18.8 M5.54 43.93 C17.4 29.23, 31.49 12.86, 40.09 5.47 M5.15 43.75 C12.23 35.43, 18.94 26.65, 39.67 3.58 M4.32 56.3 C17.02 39.29, 33.04 22.68, 45.48 8.51 M4.82 57.3 C18.68 41.01, 33.4 25.16, 46.9 9.08 M1.63 72.48 C22.07 48.92, 40.65 28, 57.8 9.28 M1.72 73.57 C14.57 57.89, 30.14 41.09, 58.53 8.48 M7.55 80.52 C19.32 66.19, 32.47 49.48, 72.83 5.25 M6.4 80.28 C23.61 57.42, 43.8 36.78, 71.42 4.84 M9.69 89.72 C26.37 68.91, 45.06 44.65, 82.01 7.82 M9.42 87.98 C37.92 55.65, 65.92 23.34, 79.22 8.13 M13.81 95 C39.16 67.7, 60.46 37.21, 89.03 10.71 M13.57 96.79 C30.96 73.96, 50.52 52.92, 86.52 11.93 M17.43 103.64 C46.93 72.52, 72.21 39.79, 97.03 13.29 M19.1 101.55 C41.94 76.52, 64.69 48.98, 95.74 13.24 M22.83 107.36 C44.93 83.8, 64.45 62.27, 101.58 20.13 M24.42 108.25 C53.76 72.08, 84.47 39.02, 101.67 18.33 M30.61 112.01 C57.31 85.83, 77.48 55.8, 105.33 24.14 M31.21 112.07 C57.62 80.48, 84.42 49.31, 107.78 24.28 M37.93 115.6 C65.2 83.24, 96.64 48.06, 110.49 31.93 M38.28 115.86 C57.29 94.95, 77.11 73.71, 112.34 32.69 M46.7 119.52 C63.07 101.33, 78.07 83.73, 117.59 35.97 M47.46 117.66 C73.57 87.05, 99.31 58.86, 116.79 38.24 M55.96 117.31 C76.82 95.82, 96.07 74.36, 119.94 45.66 M57.53 117.9 C83.68 90.02, 107.27 60.44, 119.82 46.16 M68.07 119.69 C80.79 105.03, 91.34 94.25, 120.27 56.28 M68.06 118.74 C83.09 99.08, 100.77 81.3, 121.61 57.49 M80.17 114.47 C91.98 104.37, 104.66 90.04, 125.84 67.75 M80.51 116.44 C95.84 99.61, 108.75 84.16, 124.62 66.26 M13.17 97.64 C13.17 97.64, 13.17 97.64, 13.17 97.64 M13.17 97.64 C13.17 97.64, 13.17 97.64, 13.17 97.64 M40.56 108.61 C32.88 104.91, 24.9 95.6, 5.6 77.18 M39.89 110.56 C27.46 100.13, 17.13 90.87, 4.35 78.48 M54.58 110.13 C41.79 100.21, 24.25 87.72, 4.06 67.46 M53.29 112.2 C36.19 96.41, 17.73 80.52, 2.97 67.55 M69.57 113.6 C48.8 97.43, 26.88 76.82, 4.07 56.12 M68.32 115.11 C50.97 100.19, 33.08 85.29, 3.63 56.94 M78.83 109.7 C58.38 92.06, 37.92 74.99, 5.52 46.76 M78.47 110.85 C53.22 90.03, 28.76 67.94, 4.39 47.7 M88.23 109.18 C55.2 84.08, 28.1 54.27, 3.77 38.96 M86.63 108.25 C68.42 93.06, 48.88 76.04, 6.28 37.42 M96.83 105.51 C64.36 79.62, 32.83 50.47, 8.19 29.96 M95.36 104.47 C65.35 80.22, 34.56 54.1, 9.42 30.34 M103.15 99.9 C75.37 76.19, 44.96 53.4, 15.09 24.62 M100.77 100.37 C79.19 82.04, 58.4 61.61, 13.58 23.65 M105.21 92.36 C76.5 67.55, 48.39 40.99, 18.5 16.28 M106.21 93.95 C81.22 73.11, 58.03 52.14, 18.63 16.74 M113.75 86.77 C95.92 72.12, 74.04 57.49, 24.74 12.55 M113.09 87.79 C81.83 62.77, 52.47 36.37, 26.67 13.35 M114.46 81.42 C97.27 62.35, 75.9 48.69, 34.27 6.55 M114.72 79.97 C83.04 52.43, 51.87 25.23, 31.57 9.21 M119.31 73.89 C98.56 55.75, 78.17 39.69, 41.08 5.82 M117.32 71.33 C93.31 50.74, 69.11 28.36, 39.93 5.29 M119.71 63.63 C103.23 48.5, 83.66 30.39, 46.36 -1.16 M120.75 62.41 C97.7 43.28, 74.03 23.78, 44.41 -1.27 M126.07 57.59 C104.7 36.04, 79.03 18.3, 54.59 -3.41 M125.74 57.49 C101.07 36.97, 77.83 14.99, 57.41 -3.25 M123.68 44.27 C105 31.95, 93.51 15.69, 70.42 -0.07 M121.36 44.95 C107.11 30.88, 94.33 18.9, 69.61 -1.56" stroke="#40c057" stroke-width="1" fill="none"></path><path d="M40.99 3.78 C48.92 0.39, 59.42 -0.28, 68.48 1.22 C77.54 2.73, 87.8 7.28, 95.35 12.81 C102.91 18.34, 109.74 26.05, 113.8 34.4 C117.86 42.75, 120.02 53.8, 119.71 62.9 C119.4 72, 116.71 81.11, 111.94 89 C107.17 96.89, 98.84 105.4, 91.06 110.27 C83.28 115.15, 74.49 117.44, 65.26 118.25 C56.03 119.06, 44.33 118.53, 35.69 115.13 C27.05 111.74, 19.31 105.13, 13.43 97.86 C7.54 90.6, 2.21 80.83, 0.38 71.53 C-1.45 62.23, -0.37 50.9, 2.44 42.07 C5.25 33.24, 9.57 25.36, 17.25 18.57 C24.94 11.78, 41.87 4.28, 48.55 1.33 C55.24 -1.62, 56.98 -0.05, 57.35 0.88 M68.27 1.28 C76.78 1.64, 86.04 5.81, 93.24 11.12 C100.45 16.43, 106.94 25.11, 111.48 33.15 C116.01 41.19, 120.17 50.36, 120.45 59.38 C120.73 68.39, 117.75 78.86, 113.15 87.24 C108.54 95.61, 100.67 104.18, 92.82 109.62 C84.97 115.06, 75.16 119.23, 66.04 119.87 C56.93 120.52, 46.78 117.11, 38.14 113.47 C29.49 109.84, 20.54 104.83, 14.18 98.07 C7.82 91.3, 1.8 81.99, -0.01 72.86 C-1.82 63.73, 0.88 52.05, 3.32 43.27 C5.77 34.5, 8.6 26.74, 14.66 20.19 C20.71 13.65, 30.55 7.06, 39.66 4.01 C48.77 0.96, 64.43 2.05, 69.33 1.89 C74.23 1.73, 69.46 2.36, 69.07 3.04" stroke="#000000" stroke-width="2" fill="none"></path></g><g transform="translate(378.28795888851664 1227.01827957112) rotate(0 50.5 32)"><text x="50.5" y="26" font-family="Helvetica, Segoe UI Emoji" font-size="28px" fill="#000000" text-anchor="middle" style="white-space: pre;" direction="ltr">revoked</text><text x="50.5" y="58" font-family="Helvetica, Segoe UI Emoji" font-size="28px" fill="#000000" text-anchor="middle" style="white-space: pre;" direction="ltr">true</text></g><g transform="translate(369.3481598529838 1117.7990906207326) rotate(0 94.5 32)"><text x="0" y="26" font-family="Helvetica, Segoe UI Emoji" font-size="28px" fill="#000000" text-anchor="start" style="white-space: pre;" direction="ltr">RevocationKey</text><text x="0" y="58" font-family="Helvetica, Segoe UI Emoji" font-size="28px" fill="#000000" text-anchor="start" style="white-space: pre;" direction="ltr">0x56724...</text></g><g stroke-linecap="round"><g transform="translate(794.9483009678959 775.712306674086) rotate(0 38.77363987718081 239.86390448728423)"><path d="M-0.14 -0.27 C0.28 119.81, -0.45 240.54, -5.37 478.43 M0.06 0.03 C-2.36 165.48, -3.87 330.33, -4.68 478.82 M-3.73 478.98 C17.38 478.54, 42.53 480.33, 82.32 479.18 M-4.93 477.79 C29.31 480.19, 65.3 480.58, 82.92 479.24" stroke="#000000" stroke-width="2" fill="none"></path></g><g transform="translate(794.9483009678959 775.712306674086) rotate(0 38.77363987718081 239.86390448728423)"><path d="M54.79 489.88 C61.95 487.08, 69.9 485.49, 81.07 479.02 M55.24 490.58 C65.18 487.42, 74.93 482.99, 82.66 479.91" stroke="#000000" stroke-width="2" fill="none"></path></g><g transform="translate(794.9483009678959 775.712306674086) rotate(0 38.77363987718081 239.86390448728423)"><path d="M54.06 469.37 C61.54 471.73, 69.67 475.29, 81.07 479.02 M54.5 470.07 C64.6 473.98, 74.6 476.63, 82.66 479.91" stroke="#000000" stroke-width="2" fill="none"></path></g></g><g stroke-linecap="round"><g transform="translate(790.6991522133874 1253.3882643503157) rotate(0 -0.8105690674005928 49.43926200136889)"><path d="M-0.63 -0.07 C-2.41 37.16, -1.81 70.69, -1.94 98.94 M0.07 0.42 C0.79 25.44, -0.19 49.46, -1.06 97.76" stroke="#000000" stroke-width="2" fill="none"></path></g></g><g stroke-linecap="round" transform="translate(880.9780157311386 1193.3128403873134) rotate(0 59.594363116784734 59.594363116784734)"><path d="M22 15.15 C22 15.15, 22 15.15, 22 15.15 M22 15.15 C22 15.15, 22 15.15, 22 15.15 M10.29 41.85 C17.41 31.43, 26.73 22.41, 44.96 3.38 M9.3 40.92 C16.59 32.28, 22.69 24.16, 43 3.41 M7.91 57.46 C18.9 40.65, 34.2 25.62, 52.02 7.47 M7.2 57.11 C17.39 46.23, 27.04 33.45, 51.96 5.49 M6.66 70.62 C20.97 56.03, 32.9 38.21, 63.34 4.52 M5.48 70.88 C26.8 46.2, 47.95 22.35, 62.13 6.43 M6.78 78.42 C29.43 52.1, 54.52 24.29, 78.32 2.49 M7.13 79.75 C27.01 58.25, 46.74 35.02, 76.92 1.93 M12.87 87.42 C29.02 66.58, 44.36 50.88, 81.73 6.59 M11.6 88.69 C38.02 57.98, 63.18 28.38, 83.82 6.28 M12.63 97.32 C30.7 77.8, 47.63 60.44, 89.4 8.52 M15.16 98.12 C38.91 66.59, 65.25 36.71, 89.74 9.98 M19.72 101.66 C40.49 76.66, 60.08 56.42, 98.28 12.95 M19.38 103.05 C49.43 67.49, 78.77 34.06, 96.68 14.6 M25.59 105.96 C43.31 88.77, 59.39 71.38, 102.54 19.7 M26.6 107.53 C43.87 86.62, 62.79 66.42, 103.44 19.28 M34.16 111.33 C55.42 85.52, 79.86 57.45, 108.54 25.5 M32.24 112.67 C51.32 90.78, 69.79 69.19, 108.24 26.96 M40.84 115.78 C60.65 88.68, 85.49 65.47, 112.25 33.18 M39.4 116.36 C54.86 97.1, 70.67 80.23, 111.79 33.87 M47.44 120.01 C69.15 95.02, 87.46 71.58, 117.05 39.52 M49.46 117.32 C71.43 90.48, 95.48 65.03, 116.63 39.79 M58.43 118.58 C71.38 104.61, 83.69 90.94, 117.22 51.18 M57.92 120.79 C76.62 99.18, 93.23 78.11, 118.34 52.35 M69.74 118.43 C79.59 105.39, 91.46 95.06, 118.08 63.45 M70.84 117.32 C82.89 105.13, 91.79 92.5, 119.25 62.12 M82.62 115.22 C99.85 96.59, 113.67 83.72, 122.41 71.29 M84.3 113.52 C94.79 102.17, 106.7 87.51, 122.47 72.08 M31.14 112.04 C31.14 112.04, 31.14 112.04, 31.14 112.04 M31.14 112.04 C31.14 112.04, 31.14 112.04, 31.14 112.04 M48.7 115.29 C38.9 107.94, 26.53 98.44, 13.69 87.97 M49.28 117.4 C40.43 110.86, 33.87 102.99, 14.02 86.76 M59.74 117.1 C39.03 98.46, 22.81 82.37, 0.53 65.66 M60.55 115.59 C42.06 98.9, 21.44 82.83, 0.29 65.31 M71.12 111.83 C49.25 96.88, 27.22 75.61, 0.56 53.69 M70.29 114.16 C42.78 90.01, 16.01 66.27, 2.01 55.54 M79.83 111.48 C54.72 88.7, 25.94 65.24, 4.95 47.04 M78.31 112.38 C50.16 86.62, 21.97 61.19, 3.8 45.62 M91.04 109.39 C61.03 85.12, 30.42 57.83, 4.66 34.9 M89.08 108.48 C72.87 93.72, 56.22 78.87, 5.2 34.94 M95.89 105.36 C63.77 76.56, 31 51.04, 11.17 29.85 M95.17 105.08 C69.08 80.44, 42.43 58.81, 8.96 29.6 M103.28 99.89 C75.22 76.06, 47.89 52.28, 16.87 21.85 M102.6 99.87 C70.92 71.39, 39.61 43.83, 15.12 24.79 M110.08 92.77 C74.17 64.57, 38.95 33.34, 21.68 18.45 M108.72 94.51 C74.48 66.76, 42.23 38.46, 21.2 17.37 M112.1 86.16 C90.44 66.05, 67.2 47.15, 24.71 12.57 M110.8 86.15 C77.82 58.03, 46.52 28.84, 25.51 12.07 M115.44 77.49 C82.63 52.39, 53.15 27.76, 34.08 7.63 M114.97 78.67 C97.69 63.94, 79.94 47.9, 32.62 6.92 M117.62 70.11 C95.53 54.41, 72.51 32.62, 39.36 1.94 M119.05 71.69 C90.64 47.54, 62.84 23.4, 39.35 2.09 M121.68 65.52 C99.29 45.52, 73.62 20.65, 46.87 -0.85 M122.17 65.24 C101.8 46.73, 80.35 28.56, 47.78 -1.35 M123.56 52.04 C105.55 41.07, 89.85 24.1, 58.14 -2.09 M121.89 52.68 C100.39 33.13, 77.44 15.21, 59.3 -1.34 M117.76 39.55 C105.68 26.98, 96.19 18.71, 72.43 -0.88 M117.38 37.99 C100.41 23.35, 82.2 8.47, 72.72 -1.26" stroke="#40c057" stroke-width="1" fill="none"></path><path d="M46.01 1.25 C54.39 -1.58, 66.79 -0.81, 75.9 1.68 C85.01 4.18, 93.99 9.76, 100.67 16.22 C107.34 22.68, 112.82 31.64, 115.95 40.43 C119.08 49.22, 120.74 59.97, 119.42 68.98 C118.11 78, 113.52 87.22, 108.03 94.53 C102.54 101.84, 94.98 108.63, 86.49 112.83 C77.99 117.03, 66.34 119.9, 57.07 119.73 C47.8 119.56, 38.94 116.39, 30.87 111.81 C22.81 107.22, 13.84 99.86, 8.69 92.24 C3.54 84.62, 0.74 75.32, -0.03 66.1 C-0.79 56.87, 0.38 45.44, 4.1 36.9 C7.81 28.36, 14.45 20.99, 22.25 14.86 C30.05 8.73, 45.28 2.51, 50.92 0.14 C56.56 -2.22, 55.7 -0.52, 56.07 0.69 M80.05 3.71 C88.57 5.91, 96.88 13.02, 103.32 19.59 C109.76 26.15, 116.08 34.1, 118.71 43.09 C121.34 52.09, 121.41 64.31, 119.12 73.54 C116.83 82.76, 111.37 91.76, 104.97 98.43 C98.57 105.11, 89.29 110.16, 80.72 113.59 C72.15 117.02, 62.73 119.89, 53.55 119.01 C44.37 118.12, 33.38 113.55, 25.64 108.27 C17.9 103, 11.55 95.47, 7.11 87.37 C2.67 79.28, -0.95 69.01, -1 59.7 C-1.05 50.39, 2.56 39.62, 6.79 31.52 C11.02 23.43, 16.86 16.06, 24.39 11.12 C31.91 6.17, 42.46 2.93, 51.93 1.84 C61.4 0.75, 76.79 3.89, 81.2 4.58 C85.61 5.27, 78.9 5.29, 78.38 5.98" stroke="#000000" stroke-width="2" fill="none"></path></g><g transform="translate(890.0723788479233 1220.907203504098) rotate(0 50.5 32)"><text x="50.5" y="26" font-family="Helvetica, Segoe UI Emoji" font-size="28px" fill="#000000" text-anchor="middle" style="white-space: pre;" direction="ltr">revoked</text><text x="50.5" y="58" font-family="Helvetica, Segoe UI Emoji" font-size="28px" fill="#000000" text-anchor="middle" style="white-space: pre;" direction="ltr">false</text></g><g transform="translate(881.0939387920773 1117.7990906207326) rotate(0 94.5 32)"><text x="0" y="26" font-family="Helvetica, Segoe UI Emoji" font-size="28px" fill="#000000" text-anchor="start" style="white-space: pre;" direction="ltr">RevocationKey</text><text x="0" y="58" font-family="Helvetica, Segoe UI Emoji" font-size="28px" fill="#000000" text-anchor="start" style="white-space: pre;" direction="ltr">0x12c13...</text></g><g transform="translate(773.9971592970967 1349.7779484493776) rotate(0 16 20.5)"><text x="0" y="33" font-family="Helvetica, Segoe UI Emoji" font-size="36px" fill="#000000" text-anchor="start" style="white-space: pre;" direction="ltr">...</text></g></svg>